<?xml version="1.0" standalone="no"?>
<!DOCTYPE svg PUBLIC "-//W3C//DTD SVG 20010904//EN"
 "http://www.w3.org/TR/2001/REC-SVG-20010904/DTD/svg10.dtd">
<svg version="1.0" xmlns="http://www.w3.org/2000/svg"
 width="512.000000pt" height="512.000000pt" viewBox="0 0 512.000000 512.000000"
 preserveAspectRatio="xMidYMid meet">
<metadata>
Created by potrace 1.11, written by Peter Selinger 2001-2013
</metadata>
<g transform="translate(0.000000,512.000000) scale(0.100000,-0.100000)"
fill="#000000" stroke="none">
<path d="M2789 4906 c-9 -10 -178 -33 -203 -29 -38 8 -56 -12 -56 -63 0 -24
-2 -44 -5 -44 -3 0 -27 11 -53 25 -26 14 -53 25 -59 25 -16 0 -173 -54 -202
-69 -12 -7 -21 -18 -21 -26 0 -13 -3 -13 -20 -3 -17 11 -38 0 -180 -96 -162
-110 -173 -122 -151 -164 14 -28 22 -72 13 -72 -5 0 -17 18 -28 40 -10 22 -24
40 -30 40 -6 0 -40 -30 -77 -67 -36 -38 -86 -87 -112 -110 -43 -39 -46 -45
-40 -75 7 -30 6 -32 -10 -18 -14 11 -19 12 -22 3 -3 -7 -21 -33 -41 -57 -44
-53 -92 -144 -92 -175 0 -13 -10 -26 -25 -33 -22 -10 -25 -16 -20 -40 5 -23 4
-27 -9 -22 -9 3 -16 10 -16 15 0 14 -36 11 -47 -3 -6 -7 -16 -31 -23 -53 -7
-22 -32 -87 -56 -145 -23 -58 -48 -128 -54 -155 -7 -28 -25 -89 -41 -136 -42
-124 -38 -202 13 -256 27 -29 16 -41 -22 -26 -47 18 -47 17 -69 -212 -6 -60
-7 -135 -3 -165 l7 -55 38 3 c49 5 48 -12 -3 -38 -42 -21 -42 -23 -44 -114 -1
-34 3 -41 27 -50 40 -15 33 -26 -18 -26 -63 0 -69 -14 -69 -190 0 -138 18
-382 29 -400 3 -5 27 -3 52 5 74 22 71 6 -5 -36 l-30 -17 22 -78 c17 -61 26
-80 41 -82 44 -7 47 -11 26 -34 -27 -29 -27 -32 13 -75 l33 -37 67 50 c143
104 195 137 296 186 231 110 213 98 240 156 l25 53 27 -28 c43 -47 49 -67 39
-125 -21 -114 -103 -403 -119 -421 -9 -10 -43 -34 -76 -54 -69 -40 -272 -202
-334 -266 -57 -59 -53 -75 23 -102 90 -31 169 -86 280 -195 115 -114 159 -151
270 -229 100 -72 191 -125 238 -140 20 -7 69 -28 108 -47 39 -19 105 -43 147
-54 43 -10 102 -26 132 -35 77 -23 364 -32 467 -15 115 18 256 58 326 91 75
35 81 35 132 4 22 -14 54 -25 70 -24 l30 1 -30 13 c-26 12 -27 14 -8 15 13 0
37 13 55 29 30 27 33 35 32 85 0 73 -39 132 -102 155 -41 15 -45 14 -80 -4
-25 -14 -41 -31 -49 -55 -7 -19 -12 -27 -12 -17 -1 31 27 85 53 103 34 21 103
15 143 -14 75 -53 108 -188 62 -253 l-22 -31 22 12 c29 15 51 68 51 124 l0 44
51 12 c36 9 87 10 168 5 220 -13 206 -15 209 23 2 22 -6 53 -24 88 -54 106
-144 186 -220 196 -22 3 -73 18 -113 34 -55 21 -80 38 -106 70 -22 27 -52 49
-81 60 -38 14 -50 26 -71 68 -34 65 -34 134 -3 239 23 76 25 79 71 102 26 14
67 27 91 31 24 3 76 15 117 25 55 14 110 19 209 19 73 0 142 5 153 10 14 8 19
21 19 56 0 55 -10 77 -63 131 -38 39 -41 48 -45 105 -3 53 1 71 22 111 31 58
32 76 6 128 -16 30 -18 44 -10 58 13 26 13 57 -2 97 -12 33 -11 34 50 98 60
62 62 66 62 116 0 52 -1 53 -82 139 -138 146 -153 169 -168 254 -18 105 -10
220 20 279 19 40 21 51 11 79 -6 17 -11 83 -11 145 0 62 -9 184 -21 271 -12
95 -18 180 -14 213 4 42 3 51 -5 38 -9 -15 -25 -18 -84 -18 -139 0 -223 -27
-391 -128 -234 -141 -523 -379 -687 -567 -86 -98 -115 -147 -127 -211 -26
-140 38 -161 230 -74 284 129 655 245 949 296 52 9 98 18 103 21 4 2 7 0 7 -6
0 -6 -26 -18 -57 -26 -32 -9 -69 -20 -83 -25 -14 -5 -54 -16 -90 -25 -114 -28
-380 -105 -530 -152 -233 -75 -688 -313 -895 -469 -16 -12 -42 -25 -56 -29
-37 -9 -107 12 -134 41 -35 37 -83 144 -90 199 -14 106 34 261 97 308 55 42
110 56 262 66 221 15 274 39 476 218 296 261 588 481 740 558 77 39 201 75
257 75 18 0 49 -6 68 -14 29 -13 33 -13 28 0 -8 21 -46 27 -141 21 -88 -5
-133 -20 -280 -88 -62 -29 -87 -36 -80 -21 22 42 54 119 74 174 49 134 164
344 268 491 31 43 56 86 56 95 0 39 -197 191 -226 174 -12 -7 -29 5 -74 51
-32 32 -65 57 -72 55 -7 -3 -20 -20 -29 -39 -9 -19 -23 -34 -30 -34 -7 0 -31
23 -53 51 -55 69 -64 74 -161 85 -46 5 -96 14 -111 19 -33 13 -50 1 -60 -43
-3 -18 -12 -40 -19 -51 -12 -17 -15 -15 -41 25 -39 61 -78 92 -95 75z m352
-1102 c104 -18 181 -44 187 -64 3 -9 -1 -11 -14 -6 -84 33 -221 58 -344 63
l-135 6 -10 -34 c-9 -30 -16 -36 -70 -52 -270 -83 -371 -125 -482 -203 -94
-66 -254 -229 -309 -315 -144 -222 -206 -468 -184 -723 16 -178 47 -287 131
-459 60 -123 84 -126 227 -29 79 53 132 105 132 130 0 18 -8 15 -54 -23 -83
-68 -152 -81 -221 -42 -85 48 -132 143 -166 339 -40 231 -15 440 75 633 62
131 125 223 216 314 277 274 635 402 974 346 112 -18 145 -41 41 -28 -117 14
-235 9 -273 -11 -56 -29 -67 -71 -51 -195 l12 -105 -74 -69 c-105 -99 -188
-167 -203 -167 -26 0 -47 28 -79 110 -53 131 -93 217 -106 225 -23 14 -57 -5
-130 -73 -85 -80 -85 -76 -11 -186 65 -97 74 -116 58 -116 -59 -2 -165 -23
-200 -41 -115 -57 -178 -174 -178 -331 0 -75 22 -146 70 -222 24 -37 43 -53
87 -73 53 -24 61 -25 113 -15 93 20 90 21 90 -55 0 -86 21 -132 89 -198 64
-61 77 -102 61 -183 -38 -185 -205 -371 -459 -511 -73 -41 -101 -51 -130 -49
-33 3 -36 6 -39 38 -3 35 46 245 89 379 l22 72 -35 37 c-113 117 -183 329
-195 582 -25 579 314 1069 870 1255 186 62 419 81 608 49z m666 -39 c28 -19
36 -51 64 -235 26 -179 24 -300 -8 -332 -12 -11 -25 -18 -30 -15 -6 4 -13 86
-17 184 -12 308 -26 363 -98 385 -39 11 -40 13 -17 19 42 12 84 10 106 -6z
m-280 -53 c-10 -10 -17 -21 -17 -24 0 -3 29 2 64 10 71 17 117 7 137 -30 17
-32 28 -123 30 -249 2 -142 7 -134 -133 -221 -64 -40 -98 -67 -98 -79 0 -19
-15 -24 -195 -74 -55 -16 -183 -53 -285 -83 -228 -67 -248 -70 -280 -44 -20
16 -25 29 -25 64 0 35 10 57 54 123 114 170 208 259 479 453 194 138 320 210
269 154z m325 -814 c5 -149 13 -175 79 -248 136 -152 189 -222 189 -249 0 -49
-64 -91 -140 -91 -23 0 -60 -12 -94 -29 l-56 -30 0 37 c0 44 -11 34 -35 -33
-9 -27 -30 -74 -46 -104 -16 -30 -28 -56 -26 -57 2 -2 19 9 38 25 43 36 146
91 169 91 25 0 42 -25 38 -57 -2 -22 -17 -38 -68 -71 -70 -47 -89 -69 -49 -58
61 16 134 18 154 2 16 -12 18 -18 9 -33 -12 -19 -41 -29 -116 -38 -51 -7 -62
-19 -25 -29 54 -14 117 -98 117 -158 0 -33 -3 -38 -23 -38 -13 0 -45 14 -72
31 -162 103 -312 371 -336 601 -6 57 -16 104 -28 124 -17 29 -18 33 -3 48 11
10 16 32 15 66 -1 58 2 59 82 29 39 -15 66 -33 92 -65 39 -47 57 -54 67 -28
10 27 7 324 -4 345 -16 28 -59 25 -280 -25 -107 -24 -196 -42 -198 -41 -2 2 0
18 3 37 6 32 12 37 93 71 139 58 266 92 367 100 92 8 82 23 87 -125z m-682
-84 c29 -67 103 -177 149 -222 23 -22 70 -58 105 -81 75 -49 88 -72 111 -194
58 -308 219 -540 448 -641 30 -13 58 -29 62 -36 11 -18 -14 -57 -46 -70 -34
-15 -45 -9 -52 29 -9 43 -46 79 -99 95 l-46 13 -6 -27 c-6 -35 -34 -63 -54
-55 -8 3 -34 10 -59 16 -35 9 -46 18 -57 43 -17 42 -67 82 -141 117 -129 61
-149 107 -99 236 75 197 107 336 85 376 -7 13 -51 52 -97 86 -86 63 -146 134
-183 212 -23 49 -51 127 -51 140 0 21 12 6 30 -37z m-88 -11 c8 -10 32 -49 53
-87 36 -66 135 -174 247 -271 57 -49 65 -78 49 -170 -16 -97 -66 -185 -152
-266 -38 -37 -69 -73 -69 -81 0 -8 9 -23 20 -33 29 -26 27 -50 -2 -34 -76 40
-204 156 -322 289 -55 63 -107 122 -115 130 -8 8 -59 70 -113 138 -71 89 -98
131 -98 151 0 51 26 68 370 229 56 26 112 28 132 5z m612 -19 c9 -3 16 -13 16
-20 0 -20 -78 -68 -146 -89 -49 -15 -58 -16 -71 -3 -13 14 -9 20 31 53 63 51
130 74 170 59z m-1086 -341 c101 -135 323 -387 418 -473 43 -40 199 -160 207
-160 3 0 36 -19 73 -42 132 -80 410 -187 572 -218 34 -7 62 -17 62 -21 0 -12
-3 -12 -130 16 -248 55 -476 150 -670 279 -120 80 -367 318 -462 446 -133 178
-207 294 -196 307 6 7 12 13 13 13 1 0 52 -66 113 -147z m-96 -121 c-5 -59 4
-79 49 -107 46 -29 75 -32 102 -8 18 17 20 17 54 -22 43 -51 56 -82 48 -121
-12 -67 -82 -91 -156 -54 -62 32 -213 136 -267 185 -51 46 -59 83 -28 129 23
37 32 33 46 -21 17 -70 48 -118 86 -137 49 -23 50 -20 10 17 -45 43 -53 76
-29 124 17 36 57 66 78 59 6 -1 9 -21 7 -44z m445 -459 c127 -85 337 -193 485
-248 83 -32 116 -51 104 -62 -4 -4 -157 -8 -339 -8 -354 0 -383 4 -458 51 -46
29 -75 82 -85 152 -17 127 27 202 116 202 45 0 60 -7 177 -87z m-200 -343 c7
0 31 -16 53 -36 51 -46 71 -102 114 -312 68 -330 79 -372 94 -372 12 0 14 10
8 54 -20 171 -27 362 -16 449 19 155 40 177 184 185 110 5 138 -6 162 -63 27
-65 12 -177 -28 -215 -44 -40 -76 -19 -103 70 -36 112 -70 104 -60 -15 4 -51
15 -90 41 -145 38 -79 39 -80 18 -242 -5 -38 -3 -48 9 -48 21 0 34 19 63 96
56 149 74 165 115 97 12 -21 36 -54 54 -73 62 -68 65 -77 65 -183 0 -90 -2
-99 -17 -92 -42 17 -89 16 -122 -3 -39 -21 -71 -73 -71 -113 0 -18 -11 -36
-32 -54 -27 -23 -39 -26 -79 -23 -53 5 -87 29 -309 217 -219 185 -230 194
-341 278 -58 44 -139 99 -180 123 -86 50 -129 87 -129 111 0 23 61 60 108 66
29 4 45 -1 72 -21 123 -90 129 -91 154 -32 18 44 51 54 96 31 17 -9 34 -14 37
-12 2 3 -5 33 -17 68 -12 35 -24 93 -27 128 -5 55 -3 66 13 78 10 8 28 12 39
9 11 -3 26 -6 32 -6z m743 -925 c16 -8 35 -25 41 -38 10 -18 5 -16 -25 11 -20
17 -42 32 -49 32 -7 0 2 -9 18 -20 17 -11 38 -34 48 -52 13 -25 17 -28 18 -13
0 20 0 20 9 0 25 -58 -13 -145 -63 -145 -32 0 -84 35 -107 72 -24 40 -26 114
-4 146 18 26 70 30 114 7z"/>
<path d="M3410 472 c-1 -53 57 -95 99 -72 20 10 27 30 15 43 -9 9 -35 -4 -28
-14 9 -16 -25 -22 -43 -8 -9 8 -22 27 -29 44 -12 27 -13 28 -14 7z"/>
<path d="M2144 2965 c-42 -18 -88 -73 -109 -129 -34 -89 -2 -207 72 -263 51
-39 132 -40 191 -1 108 72 135 243 54 340 -50 60 -140 83 -208 53z m164 -52
c45 -44 67 -117 56 -190 -23 -155 -224 -198 -291 -63 -66 130 16 290 149 290
41 0 52 -5 86 -37z"/>
<path d="M2263 2847 c7 -60 -10 -127 -33 -127 -23 0 -48 20 -60 50 -7 16 -15
30 -19 30 -10 -1 -61 -77 -61 -93 0 -8 16 -29 35 -46 29 -25 45 -31 80 -31 37
0 52 6 82 34 34 31 37 38 40 97 4 70 -7 102 -46 128 l-24 16 6 -58z"/>
</g>
</svg>
